PathFileType	4	(X/Y/Z)	C:/Users/opensim2020/Desktop/walking_exp_matlab/subject02_walking07_straight_03.trc																																																																																																																																																				
DataRate	CameraRate	NumFrames	NumMarkers	Units	OrigDataRate	OrigDataStartFrame	OrigNumFrames																																																																																																																																																
100	100	5	50	mm	100	2069	203																																																																																																																																																
Frame#	Time	LFHD			RFHD			LBHD			RBHD			C7			T10			CLAV			STRN			RBAK			LSHO			LUPA			LELB			LFRM			LWRA			LWRB			LFIN			RSHO			RUPA			RELB			RFRM			RWRA			RWRB			RFIN			LASI			RASI			LPSI			RPSI			LTHI			LKNE			LTIB			LANK			LHEE			LTOE			RTHI			RKNE			RTIB			RANK			RHEE			RTOE			*39			*40			*41			*42			*43			*44			*45			*46			*47			*48			*49		
		X1	Y1	Z1	X2	Y2	Z2	X3	Y3	Z3	X4	Y4	Z4	X5	Y5	Z5	X6	Y6	Z6	X7	Y7	Z7	X8	Y8	Z8	X9	Y9	Z9	X10	Y10	Z10	X11	Y11	Z11	X12	Y12	Z12	X13	Y13	Z13	X14	Y14	Z14	X15	Y15	Z15	X16	Y16	Z16	X17	Y17	Z17	X18	Y18	Z18	X19	Y19	Z19	X20	Y20	Z20	X21	Y21	Z21	X22	Y22	Z22	X23	Y23	Z23	X24	Y24	Z24	X25	Y25	Z25	X26	Y26	Z26	X27	Y27	Z27	X28	Y28	Z28	X29	Y29	Z29	X30	Y30	Z30	X31	Y31	Z31	X32	Y32	Z32	X33	Y33	Z33	X34	Y34	Z34	X35	Y35	Z35	X36	Y36	Z36	X37	Y37	Z37	X38	Y38	Z38	X39	Y39	Z39	X40	Y40	Z40	X41	Y41	Z41	X42	Y42	Z42	X43	Y43	Z43	X44	Y44	Z44	X45	Y45	Z45	X46	Y46	Z46	X47	Y47	Z47	X48	Y48	Z48	X49	Y49	Z49	X50	Y50	Z50
																																																																																																																																																							
77	0.76	-170.68279	1749.32202	1317.05017	-162.3999	1728.32971	1459.75269	-271.4726	1637.03467	1307.84863	-274.39203	1610.9613	1449.54346	-297.91653	1509.08398	1366.26514	-351.49475	1238.23352	1370.41602	-157.17	1446.73669	1367.98694	-106.12133	1272.77832	1381.63184	-361.67172	1339.14551	1423.35168	-206.38982	1490.62964	1195.20679	-149.16733	1309.54919	1097.64209	-81.68481	1185.31885	1071.51379	16.1393	1092.396	1066.86914	136.65999	1041.30249	1109.29321	104.9331	1009.13947	1074.9292	164.37004	979.89392	1073.625	-236.76054	1477.62842	1558.005	-297.40762	1297.34961	1638.8927	-301.04016	1154.2085	1670.65417	-287.16733	1038.29089	1705.90942	-248.14938	906.14172	1704.91833	-299.03848	910.06036	1729.59924	-270.23157	843.57892	1741.80457	-126.27299	974.21661	1252.18896	-130.67412	965.21094	1506.74646	-337.04208	1019.92157	1329.41785	-343.94223	1016.64642	1443.36072	-235.76991	667.59198	1206.5481	-302.50601	473.01172	1239.54883	-391.80054	298.30139	1243.13013	-421.28726	74.85662	1282.11169	-458.23535	48.60097	1334.09973	-268.12585	30.95513	1264.37122	-153.9928	664.19836	1584.30054	-78.41138	469.64832	1551.41711	-49.63758	286.29266	1564.26526	16.78603	100.75546	1543.34021	16.49928	39.97928	1484.66223	176.40038	95.01323	1578.77527	-286.24655	1776.48999	1409.78735	2845.10889	1033.97278	-3360.21313	NaN	NaN	NaN	NaN	NaN	NaN	NaN	NaN	NaN	NaN	NaN	NaN	NaN	NaN	NaN	NaN	NaN	NaN	NaN	NaN	NaN	NaN	NaN	NaN	NaN	NaN	NaN
78	0.77	-161.90094	1747.77563	1318.84607	-153.52122	1726.76184	1461.56079	-262.73477	1635.46851	1309.56506	-265.70969	1609.31995	1451.15417	-289.25253	1507.4292	1367.98083	-342.44846	1236.547	1371.85352	-148.28905	1445.17957	1369.75562	-97.05822	1271.33887	1383.2251	-352.61536	1337.11926	1424.84875	-197.67706	1489.11426	1196.85925	-140.44966	1307.92053	1099.3678	-73.15897	1183.75171	1072.84314	25.45082	1091.41589	1068.32031	146.35454	1041.38733	1110.4093	114.42414	1008.81903	1076.19568	174.33449	980.05054	1074.8584	-227.97073	1475.77917	1560.08423	-288.6897	1295.31787	1640.43408	-292.77151	1152.29724	1671.87915	-279.42737	1036.12646	1706.8219	-241.23596	903.75494	1705.91846	-292.07019	908.00385	1730.53857	-263.71164	841.17401	1742.3783	-117.42201	972.50262	1252.80225	-121.08321	963.42902	1507.42114	-328.03467	1018.3858	1331.08875	-334.6091	1015.04346	1445.10046	-229.14375	666.6059	1207.21289	-297.21909	472.59839	1240.01135	-388.67886	298.95273	1243.51416	-420.90176	75.83237	1282.09741	-458.35306	50.24207	1333.97754	-267.92673	30.94	1264.14087	-144.89609	662.3194	1584.31812	-67.55301	468.42612	1551.03369	-36.4486	285.6619	1564.08801	32.03479	100.57936	1542.6593	32.34664	40.07782	1484.66675	192.16571	96.70885	1577.36865	-277.35025	1774.96606	1411.69836	2845.15625	1034.06873	-3360.24512	NaN	NaN	NaN	NaN	NaN	NaN	NaN	NaN	NaN	NaN	NaN	NaN	NaN	NaN	NaN	NaN	NaN	NaN	NaN	NaN	NaN	NaN	NaN	NaN	NaN	NaN	NaN
79	0.78	-153.06177	1746.2655	1320.78723	-144.62297	1725.27136	1463.495	-254.01379	1633.95605	1311.53906	-256.5238	1608.00635	1453.23682	-280.28186	1505.77466	1369.87	-333.30273	1234.89661	1373.45728	-139.34578	1443.65381	1371.57605	-87.93644	1269.86938	1384.8219	-343.58511	1335.01196	1426.14807	-188.85654	1487.66077	1198.66101	-132.21068	1306.2699	1101.09949	-64.66019	1182.16113	1074.62024	33.84024	1090.38049	1069.55713	155.44824	1040.8075	1111.87964	123.87383	1008.00916	1077.89148	183.6523	979.58569	1076.25574	-219.35609	1473.87561	1561.99609	-280.26062	1293.04077	1641.66785	-284.02823	1150.30884	1673.37744	-271.43048	1033.98169	1707.97607	-233.87772	901.33997	1706.95215	-284.60022	905.97876	1731.67627	-256.84451	838.88397	1743.38928	-108.43641	970.91144	1253.4668	-111.29668	961.63586	1508.14417	-318.88293	1016.82568	1332.89453	-325.11325	1013.49164	1446.99133	-222.56134	666.0802	1207.90479	-291.59598	472.18738	1240.43396	-385.27145	299.75293	1243.94507	-420.39682	76.92097	1281.98669	-458.12656	51.75187	1333.89368	-267.82675	30.86578	1264.01282	-134.88954	660.71417	1584.78296	-55.62533	467.70859	1551.19934	-23.82734	284.92395	1563.99438	45.37405	100.35825	1542.01782	45.43937	39.63187	1483.57312	205.50618	96.81886	1575.94836	-268.50549	1773.45337	1413.68677	2845.90625	1034.04675	-3357.37427	NaN	NaN	NaN	NaN	NaN	NaN	NaN	NaN	NaN	NaN	NaN	NaN	NaN	NaN	NaN	NaN	NaN	NaN	NaN	NaN	NaN	NaN	NaN	NaN	NaN	NaN	NaN
80	0.79	-144.20505	1744.7915	1322.87512	-135.67378	1723.85095	1465.57666	-245.08493	1632.46521	1313.68689	-247.59807	1606.53284	1455.37988	-271.38992	1504.22937	1371.88452	-324.0174	1233.22595	1375.15149	-130.29088	1442.13989	1373.58118	-78.63456	1268.48645	1386.56946	-334.46472	1333.44751	1428.13562	-180.0311	1486.19788	1200.54529	-123.94585	1304.47668	1102.9657	-56.69616	1180.19666	1076.25842	42.03232	1088.78589	1071.26794	164.13957	1039.90088	1113.10486	132.69194	1006.84204	1079.67139	192.36436	978.5705	1077.97485	-210.69157	1472.12244	1564.17664	-271.28073	1291.02698	1643.44714	-275.1076	1148.13	1674.59998	-263.11459	1031.85315	1709.10706	-226.18642	899.05273	1708.16553	-277.05673	903.81964	1732.61243	-249.68251	836.69092	1744.44238	-99.35494	969.31671	1254.03162	-101.28233	959.93024	1508.99646	-309.58313	1015.24701	1334.75256	-315.52243	1012.01172	1448.97034	-215.36081	665.1087	1208.53162	-285.60315	471.75812	1240.84497	-381.71445	300.54855	1244.14429	-419.83011	78.14878	1281.7179	-457.69077	53.65533	1333.78772	-267.8241	30.8812	1263.83521	-123.41656	659.7851	1585.7301	-43.44525	466.8212	1551.40393	-11.75838	284.0957	1563.95789	56.07371	99.3548	1540.62524	55.99426	38.78018	1481.85535	216.30415	94.86917	1574.09827	-259.71967	1771.8324	1415.57593	2845.14722	1034.05811	-3360.27759	NaN	NaN	NaN	NaN	NaN	NaN	NaN	NaN	NaN	NaN	NaN	NaN	NaN	NaN	NaN	NaN	NaN	NaN	NaN	NaN	NaN	NaN	NaN	NaN	NaN	NaN	NaN
81	0.8	-135.37192	1743.4187	1324.98401	-126.73461	1722.51086	1467.68298	-236.26579	1631.0387	1315.93604	-238.68567	1605.09277	1457.8053	-262.18912	1502.66638	1374.06055	-314.5947	1231.64795	1376.99695	-121.18697	1440.73999	1375.63477	-69.32837	1267.15088	1388.40503	-325.25989	1331.698	1430.01733	-171.09302	1484.79321	1202.54236	-116.08836	1302.71155	1104.823	-48.79351	1178.30371	1078.33337	49.68195	1086.88428	1073.05017	172.18835	1038.2926	1114.64746	140.41173	1004.96484	1081.39575	200.30737	976.82715	1079.57361	-201.98984	1470.1615	1566.17944	-262.29684	1288.93262	1645.12854	-266.17365	1145.73511	1675.71082	-254.68773	1029.54517	1710.245	-218.19174	896.85455	1709.40894	-269.05209	901.76556	1733.80237	-241.97253	834.36816	1745.50049	-89.87283	967.99817	1254.83704	-91.00203	958.37018	1509.98828	-300.0672	1013.65033	1336.74158	-305.71228	1010.54584	1450.97229	-207.87784	664.08533	1209.32361	-279.22488	471.28952	1241.33374	-377.66711	301.41364	1244.39319	-419.22281	79.57571	1281.34741	-457.40186	55.48843	1333.30237	-267.8075	30.92734	1263.69971	-110.78532	659.19525	1587.35657	-30.46031	466.55273	1552.28223	-0.46799	283.08987	1563.70056	65.10702	98.11938	1539.44751	63.59123	37.7359	1480.2262	225.04085	91.43726	1572.00256	-250.79099	1770.34839	1417.71826	2845.10889	1033.97266	-3360.21313	NaN	NaN	NaN	NaN	NaN	NaN	NaN	NaN	NaN	NaN	NaN	NaN	NaN	NaN	NaN	NaN	NaN	NaN	NaN	NaN	NaN	NaN	NaN	NaN	NaN	NaN	NaN
